<?xml version="1.0" encoding="UTF-8" standalone="no"?><!DOCTYPE svg PUBLIC "-//W3C//DTD SVG 1.1//EN" "http://www.w3.org/Graphics/SVG/1.1/DTD/svg11.dtd"><svg width="100%" height="100%" viewBox="0 0 12500 10000" version="1.1" xmlns="http://www.w3.org/2000/svg" xmlns:xlink="http://www.w3.org/1999/xlink" xml:space="preserve" xmlns:serif="http://www.serif.com/" style="fill-rule:evenodd;clip-rule:evenodd;stroke-linecap:round;stroke-linejoin:round;stroke-miterlimit:1.5;"><path d="M10661.5,4051.08c-0,-379.25 -307.9,-687.15 -687.15,-687.15l-7448.75,0c-379.25,0 -687.15,307.9 -687.15,687.15l-0,1897.84c-0,379.25 307.9,687.15 687.15,687.15l7448.75,-0c379.25,-0 687.15,-307.9 687.15,-687.15l-0,-1897.84Z" style="fill:#fff;"/><g><clipPath id="_clip1"><path d="M10661.5,4051.08c-0,-379.25 -307.9,-687.15 -687.15,-687.15l-7448.75,0c-379.25,0 -687.15,307.9 -687.15,687.15l-0,1897.84c-0,379.25 307.9,687.15 687.15,687.15l7448.75,-0c379.25,-0 687.15,-307.9 687.15,-687.15l-0,-1897.84Z"/></clipPath><g clip-path="url(#_clip1)"><path d="M7292.25,6636.08c0,0 394.596,-624.012 456.679,-1810.56c42.996,-821.65 502.942,-1536.69 709.896,-1569.37c206.958,-32.687 1728.92,-482.771 1728.92,-482.771c-0,0 813.816,960 847.5,1280c33.683,319.996 151.579,1701.05 117.896,1852.63c-33.684,151.579 -150.567,1128.42 -378.442,1381.05c-227.875,252.633 -1945.77,623.158 -2147.88,572.633c-202.104,-50.529 -1077.89,-656.842 -1077.89,-656.842l-256.683,-566.771Z" style="fill:#061d49;stroke:#000;stroke-width:4.17px;"/></g></g><path d="M3345.46,4665.38l-585.213,0c-26.408,0 -47.267,10.008 -62.571,30.021c-15.308,20.017 -22.958,43.467 -22.958,70.354c-0,26.288 7.35,48.692 22.058,67.213c14.704,18.525 35.863,27.783 63.471,27.783l344.825,-0c93.033,-0 166.563,34.816 220.583,104.441c48.617,62.421 72.925,139.551 72.925,231.384c0,91.233 -24.308,168.362 -72.925,231.383c-54.021,69.625 -127.55,104.438 -220.583,104.438l-627.529,-0l-0,-234.084l587.916,0c25.209,0 45.017,-10.354 59.421,-31.062c14.404,-20.709 21.609,-44.567 21.609,-71.575c-0,-27.013 -6.905,-49.971 -20.709,-68.875c-13.804,-18.909 -33.912,-28.363 -60.321,-28.363l-345.725,0c-93.637,0 -167.762,-34.466 -222.383,-103.396c-49.217,-61.737 -73.825,-138.162 -73.825,-229.275c0,-89.908 24.608,-166.033 73.825,-228.37c55.221,-69.534 129.35,-104.3 222.383,-104.3l625.725,-0l0,232.283Z" style="fill-rule:nonzero;"/><path d="M4080.13,5098.42l-234.083,-0c-60.021,-0 -102.938,20.108 -128.746,60.325c-17.408,27.608 -26.108,62.12 -26.108,103.537c-0,15.004 0.15,24.008 0.45,27.008c0.3,3 1.05,6.001 2.25,9.005l-0,234.083l-239.488,0l0,-364.633c0,-87.629 21.609,-158.459 64.821,-212.475c50.421,-63.025 124.546,-94.538 222.383,-94.538l298.009,0c27.608,0 48.916,-9.408 63.925,-28.233c15.004,-18.821 22.504,-41.075 22.504,-66.763c-0,-27.479 -7.2,-50.479 -21.604,-69.004c-16.209,-20.912 -37.817,-31.371 -64.825,-31.371l-585.213,0l0,-232.283l625.725,0c93.638,0 167.763,34.467 222.384,103.396c49.216,62.342 73.825,138.767 73.825,229.275c-0,89.912 -24.609,166.037 -73.825,228.375c-54.621,69.529 -128.746,104.296 -222.384,104.296Z" style="fill-rule:nonzero;"/><path d="M5461.25,5532.38l-260.196,0l-287.204,-846.308c-1.8,-9.005 -8.1,-13.505 -18.904,-13.505c-10.204,0.001 -17.708,4.501 -22.508,13.505l-280.905,846.308l-263.795,0c15.004,-52.217 47.266,-156.054 96.787,-311.512c49.517,-155.459 97.683,-302.509 144.5,-441.163c52.221,-154.254 84.033,-240.088 95.438,-257.492c21.604,-30.612 53.116,-54.02 94.533,-70.225c41.412,-16.208 86.429,-24.308 135.05,-24.308c48.617,0 93.483,8.1 134.596,24.308c41.116,16.204 72.479,39.613 94.087,70.225c13.204,18.005 45.617,103.238 97.233,255.692c31.813,93.633 79.23,240.688 142.25,441.163c38.417,121.841 71.43,226.283 99.038,313.312Z" style="fill-rule:nonzero;"/><path d="M6362.46,5532.38l-537.496,0c-129.045,0 -231.083,-56.071 -306.112,-168.221c-67.225,-100.75 -100.838,-224.9 -100.838,-372.437c0,-149.925 34.213,-277.663 102.638,-383.217c75.629,-116.95 177.067,-175.425 304.313,-175.425l537.495,-0l0,232.283l-496.983,0c-60.021,0 -107.137,31.767 -141.35,95.296c-30.612,56.946 -45.917,127.375 -45.917,211.283c0,86.309 15.905,160.025 47.717,221.155c34.813,67.133 81.329,100.695 139.55,100.695l496.983,0l0,238.588Z" style="fill-rule:nonzero;"/><path d="M7389.75,5532.38l-625.729,0c-93.633,0 -167.763,-35.112 -222.383,-105.337c-49.217,-63.025 -73.825,-140.45 -73.825,-232.284c-0.001,-82.833 20.708,-154.558 62.12,-215.179c-41.412,-60.521 -62.12,-131.529 -62.12,-213.025c-0.001,-89.883 24.608,-166.288 73.824,-229.204c54.621,-69.513 128.751,-104.271 222.384,-104.271l625.729,-0l0,232.283l-585.217,0c-26.408,0 -47.266,10.009 -62.57,30.021c-15.305,20.017 -22.959,43.467 -22.959,70.354c0,26.288 7.354,48.692 22.059,67.213c14.704,18.525 35.862,27.783 63.47,27.783l585.217,0l-0,237.688l-618.525,-0c-16.208,7.204 -28.963,19.808 -38.267,37.816c-9.304,18.004 -13.954,37.813 -13.954,59.421c0,27.008 7.354,50.417 22.059,70.225c14.704,19.808 35.862,29.708 63.47,29.708l585.217,0l-0,236.788Z" style="fill-rule:nonzero;"/><path d="M9155.96,5138.38c0,127.146 -49.216,228.5 -147.65,304.075c-88.833,68.367 -197.475,102.55 -325.921,102.55c-124.845,0 -229.883,-33.583 -315.112,-100.75c-95.438,-74.971 -143.154,-176.929 -143.154,-305.875l-0,-705.279l238.587,-0l0,665.542c0,57.562 24.609,103.733 73.825,138.508c45.017,31.775 99.338,47.662 162.963,47.662c61.221,0 112.837,-15.291 154.854,-45.875c46.817,-34.175 70.225,-80.941 70.225,-140.295l-0,-665.542l231.383,-0l0,705.279Z" style="fill:#fff;fill-rule:nonzero;"/><path d="M9891.54,5098.42l-234.088,-0c-60.021,-0 -102.937,20.108 -128.746,60.325c-17.408,27.608 -26.108,62.12 -26.108,103.537c0,15.004 0.15,24.008 0.45,27.008c0.3,3 1.05,6.001 2.25,9.005l0,234.083l-239.487,0l-0.001,-364.633c0.001,-87.629 21.609,-158.459 64.825,-212.475c50.417,-63.025 124.546,-94.538 222.38,-94.538l298.008,0c27.612,0 48.917,-9.408 63.925,-28.233c15.004,-18.821 22.508,-41.075 22.508,-66.763c0,-27.479 -7.204,-50.479 -21.608,-69.004c-16.208,-20.912 -37.817,-31.371 -64.825,-31.371l-585.212,0l-0,-232.283l625.729,0c93.633,0 167.758,34.467 222.379,103.396c49.217,62.342 73.829,138.767 73.829,229.275c0,89.912 -24.612,166.037 -73.829,228.375c-54.621,69.529 -128.746,104.296 -222.379,104.296Z" style="fill:#fff;fill-rule:nonzero;"/><g><path d="M10675.5,4048.08c0,-380.446 -308.875,-689.321 -689.32,-689.321l-7472.29,0c-380.446,0 -689.321,308.875 -689.321,689.321l0,1903.83c0,380.446 308.875,689.32 689.321,689.32l7472.29,0.001c380.445,-0.001 689.32,-308.876 689.32,-689.321l0,-1903.83Z" style="fill:#061c49;"/><path d="M8305.49,3358.76c-224.529,234.397 -517.863,817.145 -551.829,1466.21c-62.119,1187.23 -456.081,1813.04 -458.113,1816.26l-4781.7,-0.001c-380.446,0.001 -689.321,-308.874 -689.321,-689.32l0,-1903.83c0,-380.446 308.875,-689.321 689.321,-689.321l5791.65,0Z" style="fill:#fff;"/><path d="M3336.29,4664.33l-587.063,0c-26.491,0 -47.416,10.038 -62.771,30.113c-15.354,20.079 -23.029,43.604 -23.029,70.575c0,26.371 7.375,48.846 22.125,67.429c14.754,18.579 35.979,27.871 63.675,27.871l345.917,-0c93.325,-0 167.083,34.921 221.275,104.767c48.771,62.62 73.158,139.991 73.158,232.116c0,91.521 -24.387,168.892 -73.158,232.113c-54.192,69.846 -127.95,104.771 -221.275,104.771l-629.513,-0l0,-234.825l589.771,-0c25.288,-0 45.159,-10.388 59.609,-31.159c14.454,-20.775 21.679,-44.708 21.679,-71.804c-0,-27.096 -6.925,-50.125 -20.775,-69.092c-13.85,-18.966 -34.021,-28.45 -60.513,-28.45l-346.816,0c-93.93,0 -168.292,-34.575 -223.084,-103.725c-49.375,-61.933 -74.058,-138.6 -74.058,-229.995c-0,-90.196 24.683,-166.563 74.058,-229.096c55.396,-69.75 129.754,-104.629 223.084,-104.629l627.704,-0l-0,233.02Z" style="fill-rule:nonzero;"/><path d="M4073.28,5098.75l-234.825,0c-60.212,0 -103.262,20.171 -129.154,60.512c-17.462,27.696 -26.192,62.317 -26.192,103.863c0,15.054 0.15,24.087 0.45,27.096c0.305,3.012 1.055,6.021 2.259,9.033l-0,234.825l-240.242,0l0,-365.787c0,-87.909 21.675,-158.955 65.029,-213.146c50.575,-63.221 124.938,-94.834 223.084,-94.834l298.95,0c27.695,0 49.07,-9.441 64.125,-28.325c15.05,-18.879 22.579,-41.204 22.579,-66.975c-0,-27.562 -7.225,-50.637 -21.679,-69.216c-16.255,-20.984 -37.934,-31.471 -65.025,-31.471l-587.063,-0l0,-233.021l627.704,0c93.929,0 168.292,34.575 223.084,103.725c49.37,62.538 74.058,139.2 74.058,230c-0,90.192 -24.688,166.558 -74.058,229.092c-54.792,69.754 -129.155,104.629 -223.084,104.629Z" style="fill-rule:nonzero;"/><path d="M5458.75,5534.08l-261.017,0l-288.108,-848.983c-1.808,-9.029 -8.129,-13.546 -18.967,-13.546c-10.237,0 -17.762,4.517 -22.579,13.546l-281.792,848.983l-264.629,0c15.054,-52.383 47.417,-156.55 97.092,-312.5c49.675,-155.945 97.996,-303.462 144.958,-442.554c52.384,-154.741 84.296,-240.841 95.738,-258.304c21.675,-30.708 53.287,-54.192 94.833,-70.45c41.546,-16.254 86.704,-24.383 135.475,-24.383c48.771,-0 93.779,8.129 135.025,24.383c41.242,16.258 72.704,39.742 94.379,70.45c13.246,18.063 45.763,103.563 97.542,256.5c31.913,93.929 79.479,241.446 142.704,442.554c38.534,122.229 71.65,226.996 99.346,314.304Z" style="fill-rule:nonzero;"/><path d="M6362.83,5534.08l-539.191,0c-129.454,0 -231.817,-56.25 -307.08,-168.754c-67.437,-101.071 -101.154,-225.608 -101.154,-373.617c0,-150.395 34.321,-278.537 102.963,-384.425c75.862,-117.316 177.621,-175.979 305.271,-175.979l539.191,0l0,233.021l-498.55,0c-60.212,0 -107.479,31.863 -141.796,95.596c-30.708,57.125 -46.062,127.775 -46.062,211.946c0,86.583 15.954,160.533 47.867,221.858c34.921,67.342 81.587,101.013 139.991,101.013l498.55,-0l0,239.341Z" style="fill-rule:nonzero;"/><path d="M7393.33,5534.08l-627.7,0c-93.933,0 -168.291,-35.225 -223.083,-105.671c-49.375,-63.225 -74.063,-140.895 -74.063,-233.02c0.001,-83.092 20.776,-155.042 62.321,-215.859c-41.545,-60.708 -62.32,-131.941 -62.32,-213.695c-0.001,-90.167 24.687,-166.809 74.062,-229.93c54.792,-69.733 129.15,-104.6 223.083,-104.6l627.7,0l0,233.021l-587.058,0c-26.496,0 -47.417,10.038 -62.771,30.113c-15.354,20.079 -23.033,43.604 -23.033,70.575c-0,26.371 7.379,48.846 22.129,67.429c14.754,18.579 35.975,27.871 63.675,27.871l587.058,-0l0,238.437l-620.475,0c-16.258,7.225 -29.054,19.871 -38.387,37.934c-9.334,18.062 -14,37.933 -14,59.608c-0,27.096 7.379,50.579 22.129,70.446c14.754,19.871 35.975,29.808 63.675,29.808l587.058,0l0,237.533Z" style="fill-rule:nonzero;"/><path d="M9165.12,5138.79c0,127.546 -49.375,229.225 -148.121,305.033c-89.112,68.583 -198.096,102.875 -326.946,102.875c-125.241,0 -230.612,-33.688 -316.112,-101.071c-95.734,-75.204 -143.604,-177.487 -143.604,-306.837l-0,-707.509l239.341,0l0,667.642c0,57.746 24.688,104.062 74.059,138.95c45.158,31.871 99.65,47.808 163.475,47.808c61.416,0 113.2,-15.337 155.345,-46.016c46.967,-34.284 70.446,-81.196 70.446,-140.742l0,-667.642l232.117,0l0,707.509Z" style="fill:#fff;fill-rule:nonzero;"/><path d="M9903.04,5098.75l-234.825,0c-60.213,0 -103.263,20.171 -129.154,60.512c-17.463,27.696 -26.192,62.317 -26.192,103.863c-0,15.054 0.15,24.087 0.45,27.096c0.304,3.012 1.054,6.021 2.258,9.033l0,234.825l-240.241,0l-0,-365.787c-0,-87.909 21.675,-158.955 65.029,-213.146c50.575,-63.221 124.937,-94.834 223.083,-94.834l298.946,0c27.7,0 49.075,-9.441 64.129,-28.325c15.05,-18.879 22.579,-41.204 22.579,-66.975c0,-27.562 -7.229,-50.637 -21.679,-69.216c-16.254,-20.984 -37.933,-31.471 -65.029,-31.471l-587.058,-0l-0,-233.021l627.704,0c93.929,0 168.291,34.575 223.083,103.725c49.371,62.538 74.058,139.2 74.058,230c0,90.192 -24.687,166.558 -74.058,229.092c-54.792,69.754 -129.154,104.629 -223.083,104.629Z" style="fill:#fff;fill-rule:nonzero;"/><path d="M2812.85,6093.5l-198.354,0c-47.625,0 -85.279,-22.2 -112.967,-66.604c-24.808,-39.896 -37.212,-89.05 -37.212,-147.467c-0,-59.362 12.625,-109.941 37.875,-151.733c27.912,-46.308 65.346,-69.458 112.304,-69.458l198.354,-0l0,91.97l-183.404,0c-22.15,0 -39.538,12.575 -52.163,37.73c-11.295,22.55 -16.945,50.433 -16.945,83.658c-0,34.175 5.87,63.362 17.608,87.567c12.85,26.579 30.012,39.87 51.5,39.87l183.404,0l0,94.467Z" style="fill-rule:nonzero;"/><path d="M3416.17,5937.5c-0,50.346 -18.163,90.475 -54.492,120.4c-32.779,27.071 -72.871,40.604 -120.271,40.604c-46.075,0 -84.837,-13.296 -116.291,-39.892c-35.217,-29.687 -52.825,-70.054 -52.825,-121.112l-0,-279.25l88.045,-0l0,263.517c0,22.791 9.084,41.075 27.246,54.841c16.613,12.584 36.659,18.871 60.138,18.871c22.591,0 41.641,-6.054 57.146,-18.162c17.275,-13.534 25.916,-32.05 25.916,-55.55l0,-263.517l85.388,-0l-0,279.25Z" style="fill-rule:nonzero;"/><path d="M4020.15,5750.25l-215.963,0c-9.745,0 -17.445,3.963 -23.091,11.888c-5.65,7.925 -8.475,17.208 -8.475,27.854c-0,10.408 2.712,19.279 8.141,26.612c5.425,7.333 13.234,11.004 23.425,11.004l127.25,0c34.334,0 61.467,13.784 81.4,41.35c17.942,24.717 26.913,55.255 26.913,91.617c-0,36.125 -8.971,66.662 -26.913,91.617c-19.933,27.566 -47.066,41.35 -81.4,41.35l-231.579,-0l0,-92.684l216.958,0c9.305,0 16.613,-4.1 21.93,-12.3c5.316,-8.2 7.975,-17.645 7.975,-28.341c-0,-10.692 -2.546,-19.784 -7.642,-27.271c-5.096,-7.484 -12.512,-11.229 -22.262,-11.229l-127.584,-0c-34.554,-0 -61.908,-13.646 -82.066,-40.938c-18.163,-24.446 -27.242,-54.708 -27.242,-90.783c-0,-35.6 9.079,-65.738 27.242,-90.421c20.379,-27.533 47.733,-41.296 82.066,-41.296l230.917,0l-0,91.971Z" style="fill-rule:nonzero;"/><path d="M4682.58,6093.5l-96.021,0l-105.987,-335.092c-0.667,-3.566 -2.992,-5.35 -6.979,-5.35c-3.767,0 -6.534,1.784 -8.304,5.35l-103.663,335.092l-97.35,0c5.538,-20.675 17.442,-61.787 35.717,-123.342c18.275,-61.554 36.05,-119.779 53.325,-174.675c19.271,-61.079 31.012,-95.062 35.221,-101.954c7.971,-12.121 19.6,-21.392 34.883,-27.808c15.283,-6.417 31.896,-9.625 49.838,-9.625c17.941,-0 34.5,3.208 49.675,9.625c15.17,6.416 26.745,15.687 34.716,27.808c4.875,7.129 16.838,40.875 35.884,101.238c11.741,37.075 29.241,95.3 52.495,174.679c14.18,48.241 26.359,89.596 36.55,124.054Z" style="fill-rule:nonzero;"/><path d="M5144.04,5750.25l-91.7,0l-0,343.292l-88.713,-0l0,-343.292l-91.367,0l0,-91.971l271.78,0l-0,91.971Z" style="fill-rule:nonzero;"/></g></svg>